<svg width="550" height="60" viewBox="0 0 550 60" fill="none" xmlns="http://www.w3.org/2000/svg">
<g clip-path="url(#clip0_3161_7033)">
<path d="M34.3258 14.4673H38.7632V16.6263H43.1956V14.4673H47.6329V12.3131H52.0703V8H47.6329V10.159H43.1956V12.3131H38.7632V10.159H34.3258V8H29.8885V12.3131H34.3258V14.4673Z" fill="black"/>
<path d="M16.3316 20.7309V18.4736H18.589V13.954H16.3316V11.6967H11.8118V20.7309H2.77734V25.2505H5.03471V27.5078H9.55451V25.2505H14.0743V29.7702H16.3316V34.2898H20.8514V38.8095H25.3712V41.0668H29.891V52.3633H34.4108V47.8437H36.6681V43.324H43.4453V41.0668H47.9651V38.8095H52.4849V34.2898H54.7422V29.7702H56.9996V20.736H16.3367L16.3316 20.7309ZM47.96 29.7651H43.4402V25.2455H47.96V29.7651Z" fill="black"/>
</g>
<path d="M123.539 35.9538V40.7178H118.761V31.1947H116.374V26.4307H113.988V19.2871H118.766V21.6667H121.152V23.7835H125.931V12.1436H123.544V5H113.993V7.37953H109.215V9.75907H104.437V16.9026H102.05V21.6667H75.7781V26.4307H80.5562V40.7178H75.7781V35.9538H71V40.7178H73.3866V45.4819H75.7731V47.8614H80.5512V50.2409H85.3293V52.6205H90.1073V55H109.21V52.6205H113.988V50.2409H118.766V47.8614H123.544V45.4819H125.931V40.7178H128.317V35.9538H123.539ZM113.988 47.8614H109.21V50.2409H90.1073V47.8614H85.3293V40.7178H90.1073V35.9538H109.21V40.7178H113.988V47.8614Z" fill="black"/>
<path d="M148.184 35.3711H142.781V40.7615H148.184V35.3711Z" fill="black"/>
<path d="M148.184 40.7695H142.781V46.1718H148.184V40.7695Z" fill="black"/>
<path d="M159.044 51.5312H153.582V56.9991H159.044V51.5312Z" fill="black"/>
<path d="M164.501 51.5312H159.039V56.9991H164.501V51.5312Z" fill="black"/>
<path d="M169.964 51.5312H164.496V56.9991H169.964V51.5312Z" fill="black"/>
<path d="M175.359 46.1641H169.969V51.5664H175.359V46.1641Z" fill="black"/>
<path d="M180.57 40.7695H175.168V46.1718H180.57V40.7695Z" fill="black"/>
<path d="M180.57 35.3711H175.168V40.7615H180.57V35.3711Z" fill="black"/>
<path d="M180.555 29.9727H175.152V35.375H180.555V29.9727Z" fill="black"/>
<path d="M180.549 24.5859H175.152V29.9823H180.549V24.5859Z" fill="black"/>
<path d="M180.549 19.1875H175.152V24.5838H180.549V19.1875Z" fill="black"/>
<path d="M183.26 24.5859H177.863V29.9823H183.26V24.5859Z" fill="black"/>
<path d="M185.951 13.6836H180.555V19.0799H185.951V13.6836Z" fill="black"/>
<path d="M185.959 3.75391H180.562V9.15025H185.959V3.75391Z" fill="black"/>
<path d="M196.744 13.6836H191.348V19.0799H196.744V13.6836Z" fill="black"/>
<path d="M191.295 8.34375H185.898V13.7401H191.295V8.34375Z" fill="black"/>
<path d="M196.744 3H191.348V8.39636H196.744V3Z" fill="black"/>
<path d="M148.184 29.9727H142.781V35.375H148.184V29.9727Z" fill="black"/>
<path d="M153.578 24.5781H148.176V29.9804H153.578V24.5781Z" fill="black"/>
<path d="M175.148 24.5781H169.758V29.9804H175.148V24.5781Z" fill="black"/>
<path d="M175.162 19.1875H169.766V24.5838H175.162V19.1875Z" fill="black"/>
<path d="M175.162 16.4922H169.766V21.8885H175.162V16.4922Z" fill="black"/>
<path d="M153.578 46.1641H148.176V51.5664H153.578V46.1641Z" fill="black"/>
<path d="M158.972 19.1914H153.582V24.5937H158.972V19.1914Z" fill="black"/>
<path d="M164.379 19.1914H158.977V24.5937H164.379V19.1914Z" fill="black"/>
<path d="M175.15 35.3764V29.986H169.759V24.6016H153.582V29.986H148.18V46.1751H153.582V51.5357H169.968V46.1751H175.167V35.3823H175.155L175.15 35.3764ZM164.369 32.6782H158.966V38.0686H153.576V32.6663H158.966V27.2819H164.369V32.6723V32.6782Z" fill="black"/>
<path d="M169.761 19.1914H164.371V24.5937H169.761V19.1914Z" fill="black"/>
<path d="M250.111 8H245.223V12.8888H250.111V8Z" fill="black"/>
<path d="M235.444 8H230.555V12.8888H235.444V8Z" fill="black"/>
<path d="M242.779 22.6644H247.667V17.7756H244.999V12.8867H240.336H240.112H235.444V17.7756H233V22.6644H237.887H242.779Z" fill="black"/>
<path d="M223.222 17.7659V15.332H218.333V17.7659H213.444V22.6338H211V27.5016H213.444V32.3694H218.333V34.8874H223.222V32.4535H228.111V27.5857H223.222V30.0196V27.5659H228.111V22.6535H223.222V20.1998V22.6338H228.111V17.7659H223.222ZM218.333 22.6585H215.889V22.6387H218.333V22.6585Z" fill="black"/>
<path d="M267.224 22.6653V17.7765H262.336V15.332H257.448V17.7765H252.56V22.6653H247.671V27.5541H245.227H240.339H235.446H233.002V22.6653H228.113V27.5541H230.557V32.443H235.446H240.339H245.227H250.115V27.5541H252.56V32.443H257.448V34.8874H262.336V32.443H267.224V27.5541H269.668V22.6653H267.224Z" fill="black"/>
<path d="M242.779 47.1094H237.891V51.9982H242.779V47.1094Z" fill="black"/>
<path d="M240.335 37.332H235.442H230.555V42.2209H235.442H240.335H245.222H250.11V37.332H245.222H240.335Z" fill="black"/>
<path d="M314.764 48.5742H309.81H304.856V51.0511H299.902H294.954H290V55.9993H294.954H299.902H304.856V53.5224H309.81H314.764H319.712H324.666V48.5742H319.712H314.764Z" fill="black"/>
<path d="M329.618 43.6211H324.664V48.5749H329.618V43.6211Z" fill="black"/>
<path d="M299.901 43.6179H304.855H309.809H314.763H319.711H324.665V38.6641H319.711H314.763H309.809H304.855H299.901H294.953V43.6179H299.901Z" fill="black"/>
<path d="M294.954 33.7148H290V38.6687H294.954V33.7148Z" fill="black"/>
<path d="M304.855 33.7195H309.809H314.763H319.711H324.665V28.7656H319.711H314.763H309.809H304.855H299.901H294.953V33.7195H299.901H304.855Z" fill="black"/>
<path d="M329.618 23.8125H324.664V28.7663H329.618V23.8125Z" fill="black"/>
<path d="M319.711 18.8594H314.763H309.809H304.855H299.901H294.953V23.8132H299.901H304.855H309.809H314.763H319.711H324.665V18.8594H319.711Z" fill="black"/>
<path d="M294.954 13.9062H290V18.8601H294.954V13.9062Z" fill="black"/>
<path d="M304.855 13.9077H309.809V11.4308H314.763V13.9077H319.711H324.665V11.4308H327.142V6.47691H324.665V4H319.711H314.763V6.47691H309.809V8.95383H304.855H299.901H294.953V13.9077H299.901H304.855Z" fill="black"/>
<path d="M374.503 22.5H369.504V27.4989H374.503V22.5Z" fill="black"/>
<path d="M389.503 22.5H384.504V27.4989H389.503V22.5Z" fill="black"/>
<path d="M382.002 37.4956V34.9989H386.154V30H381.155V32.4967H377.003V30H372.004V34.9989H377.003V37.4956V42.4945H372.004V47.4934H377.003H382.002H387.001V42.4945H382.002V37.4956Z" fill="black"/>
<path d="M402.006 30H399.503V20.0022H397.001V15.0033H394.499V10.0044H389.5V7.50221H384.501V5H374.503V7.50221H369.504V10.0044H364.506V15.0033H362.003V20.0022H359.501V30H352V34.9989H357.06V49.9956H359.501V52.4978H364.5V55H394.499V52.4978H399.498V49.9956H402V34.9989H406.999V30H402H402.006ZM384.507 49.9956H369.51V44.9967H367.008V34.9989H369.51V30H367.008V25.0011H364.506V20.0022H377.006V25.0011H382.004V20.0022H394.504V25.0011H392.002V30H389.5V34.9989H392.002V44.9967H389.5V49.9956H384.501H384.507Z" fill="black"/>
<path d="M475.909 16.1071V6H465.725V8.67159H460.639V6H440.27V8.67159H435.184V6H425V16.1071H430.086V18.631H427.543V23.6904H425V38.8452H427.543V43.8929H430.086V48.9524H435.184V51.4762H440.27V54H460.639V51.4762H465.725V48.9524H470.823V43.8929H473.366V38.8452H475.909V23.6904H473.366V18.631H470.823V16.1071H475.909ZM432.635 33.8035V23.6786H435.19V18.631H445.362L445.374 23.6904L447.917 23.6786V28.7499L442.819 28.7263V23.6904L437.733 23.7023V28.7263L442.819 28.7499V33.7976H437.733V33.8094H432.635V33.8035ZM463.182 41.706H458.096V46.4226H442.813V41.706H437.727V36.6465H442.813V41.706H447.911L447.923 38.8393H445.356V33.7917H455.553V38.8393H452.986L452.998 41.706H458.096V36.6465H463.182V41.706ZM468.28 33.8035H463.182V33.7917H458.096V28.744L463.182 28.7204V23.6963L458.096 23.6845V28.7204L452.998 28.744V23.6727L455.541 23.6845L455.553 18.625H465.725V23.6727H468.28V33.7976V33.8035Z" fill="black"/>
<path d="M523.259 22.8984H517.578V28.5856H523.259V22.8984Z" fill="black"/>
<path d="M543.153 20.0586H537.473V25.7458H543.153V20.0586Z" fill="black"/>
<path d="M545.997 25.7344H540.316V31.4216H545.997V25.7344Z" fill="black"/>
<path d="M548.833 25.7344H543.152V31.4216H548.833V25.7344Z" fill="black"/>
<path d="M545.997 14.3672H540.316V20.0544H545.997V14.3672Z" fill="black"/>
<path d="M548.833 20.0586H543.152V25.7458H548.833V20.0586Z" fill="black"/>
<path d="M497.681 20.0586H492V25.7458H497.681V20.0586Z" fill="black"/>
<path d="M500.52 25.7344H494.84V31.4216H500.52V25.7344Z" fill="black"/>
<path d="M497.681 25.7344H492V31.4216H497.681V25.7344Z" fill="black"/>
<path d="M500.52 14.3672H494.84V20.0544H500.52V14.3672Z" fill="black"/>
<path d="M503.36 20.0586H497.68V25.7458H503.36V20.0586Z" fill="black"/>
<path d="M523.259 8.68359H517.578V14.3708H523.259V8.68359Z" fill="black"/>
<path d="M523.259 28.5781H517.578V34.2653H523.259V28.5781Z" fill="black"/>
<path d="M517.571 28.5781H511.891V34.2653H517.571V28.5781Z" fill="black"/>
<path d="M520.415 34.2656H514.734V39.9528H520.415V34.2656Z" fill="black"/>
<path d="M509.048 45.6289H503.367V51.3161H509.048V45.6289Z" fill="black"/>
<path d="M509.048 51.3125H503.367V56.9997H509.048V51.3125Z" fill="black"/>
<path d="M503.36 45.6289H497.68V51.3161H503.36V45.6289Z" fill="black"/>
<path d="M537.468 45.6289H531.781V51.3095H537.468V45.6289Z" fill="black"/>
<path d="M543.16 45.6289H537.473V51.3095H543.16V45.6289Z" fill="black"/>
<path d="M537.468 51.3125H531.781V56.993H537.468V51.3125Z" fill="black"/>
<path d="M526.098 34.2656H520.418V39.9528H526.098V34.2656Z" fill="black"/>
<path d="M528.938 28.5781H523.258V34.2653H528.938V28.5781Z" fill="black"/>
<path d="M523.259 3H517.578V8.68721H523.259V3Z" fill="black"/>
<path d="M517.571 3H511.891V8.68721H517.571V3Z" fill="black"/>
<path d="M528.938 3H523.258V8.68721H528.938V3Z" fill="black"/>
<defs>
<clipPath id="clip0_3161_7033">
<rect width="60" height="60" fill="white"/>
</clipPath>
</defs>
</svg>
